<mxfile host="app.diagrams.net" modified="2021-03-29T12:34:18.775Z" agent="5.0 (Macintosh; Intel Mac OS X 10_15_7) AppleWebKit/537.36 (KHTML, like Gecko) Chrome/89.0.4389.90 Safari/537.36" etag="3hPLNZlMIVmaTOXIGuZn" version="14.4.8" type="github">
  <diagram id="r9S-DUPZiHRXWyr1_-Ul" name="Page-1">
    <mxGraphModel dx="2082" dy="2012" grid="1" gridSize="10" guides="1" tooltips="1" connect="1" arrows="1" fold="1" page="1" pageScale="1" pageWidth="827" pageHeight="1169" math="0" shadow="0">
      <root>
        <mxCell id="0" />
        <mxCell id="1" parent="0" />
        <mxCell id="TFNWqY0PJbVMRvpgXl2z-1" value="特征分类" style="shape=cylinder3;whiteSpace=wrap;html=1;boundedLbl=1;backgroundOutline=1;size=15;fillColor=#eeeeee;strokeColor=#36393d;" vertex="1" parent="1">
          <mxGeometry x="120" y="450" width="60" height="70" as="geometry" />
        </mxCell>
        <mxCell id="TFNWqY0PJbVMRvpgXl2z-4" value="" style="group" vertex="1" connectable="0" parent="1">
          <mxGeometry x="-80" y="50" width="130" height="50" as="geometry" />
        </mxCell>
        <mxCell id="TFNWqY0PJbVMRvpgXl2z-2" value="元数据" style="shape=cylinder3;whiteSpace=wrap;html=1;boundedLbl=1;backgroundOutline=1;size=15;fillColor=#f5f5f5;strokeColor=#666666;fontColor=#333333;" vertex="1" parent="TFNWqY0PJbVMRvpgXl2z-4">
          <mxGeometry width="60" height="50" as="geometry" />
        </mxCell>
        <mxCell id="TFNWqY0PJbVMRvpgXl2z-3" value="实际存储数据" style="shape=cylinder3;whiteSpace=wrap;html=1;boundedLbl=1;backgroundOutline=1;size=15;fillColor=#f9f7ed;strokeColor=#36393d;" vertex="1" parent="TFNWqY0PJbVMRvpgXl2z-4">
          <mxGeometry x="70" width="60" height="50" as="geometry" />
        </mxCell>
        <mxCell id="TFNWqY0PJbVMRvpgXl2z-5" value="特征" style="shape=cylinder3;whiteSpace=wrap;html=1;boundedLbl=1;backgroundOutline=1;size=15;fillColor=#eeeeee;strokeColor=#36393d;" vertex="1" parent="1">
          <mxGeometry x="200" y="450" width="60" height="70" as="geometry" />
        </mxCell>
        <mxCell id="TFNWqY0PJbVMRvpgXl2z-6" value="特征字典" style="shape=cylinder3;whiteSpace=wrap;html=1;boundedLbl=1;backgroundOutline=1;size=15;fillColor=#eeeeee;strokeColor=#36393d;" vertex="1" parent="1">
          <mxGeometry x="40" y="450" width="60" height="70" as="geometry" />
        </mxCell>
        <mxCell id="TFNWqY0PJbVMRvpgXl2z-7" value="特征主题" style="shape=cylinder3;whiteSpace=wrap;html=1;boundedLbl=1;backgroundOutline=1;size=15;fillColor=#eeeeee;strokeColor=#36393d;" vertex="1" parent="1">
          <mxGeometry x="-40" y="450" width="60" height="70" as="geometry" />
        </mxCell>
        <mxCell id="TFNWqY0PJbVMRvpgXl2z-8" value="。。。。" style="text;html=1;align=center;verticalAlign=middle;whiteSpace=wrap;rounded=0;" vertex="1" parent="1">
          <mxGeometry x="290" y="480" width="40" height="20" as="geometry" />
        </mxCell>
        <mxCell id="TFNWqY0PJbVMRvpgXl2z-18" value="" style="edgeStyle=orthogonalEdgeStyle;rounded=0;orthogonalLoop=1;jettySize=auto;html=1;" edge="1" parent="1" source="TFNWqY0PJbVMRvpgXl2z-9" target="TFNWqY0PJbVMRvpgXl2z-17">
          <mxGeometry relative="1" as="geometry" />
        </mxCell>
        <mxCell id="TFNWqY0PJbVMRvpgXl2z-19" value="更新meta" style="edgeLabel;html=1;align=center;verticalAlign=middle;resizable=0;points=[];" vertex="1" connectable="0" parent="TFNWqY0PJbVMRvpgXl2z-18">
          <mxGeometry x="0.06" y="-2" relative="1" as="geometry">
            <mxPoint as="offset" />
          </mxGeometry>
        </mxCell>
        <mxCell id="TFNWqY0PJbVMRvpgXl2z-27" value="" style="edgeStyle=orthogonalEdgeStyle;rounded=0;orthogonalLoop=1;jettySize=auto;html=1;fillColor=#f9f7ed;strokeColor=#FF6666;" edge="1" parent="1" source="TFNWqY0PJbVMRvpgXl2z-9" target="TFNWqY0PJbVMRvpgXl2z-14">
          <mxGeometry relative="1" as="geometry" />
        </mxCell>
        <mxCell id="TFNWqY0PJbVMRvpgXl2z-28" value="查询特征元数据(Phase1)" style="edgeLabel;html=1;align=center;verticalAlign=middle;resizable=0;points=[];" vertex="1" connectable="0" parent="TFNWqY0PJbVMRvpgXl2z-27">
          <mxGeometry y="1" relative="1" as="geometry">
            <mxPoint as="offset" />
          </mxGeometry>
        </mxCell>
        <mxCell id="TFNWqY0PJbVMRvpgXl2z-9" value="特征元数据 - 管理时" style="rounded=1;whiteSpace=wrap;html=1;" vertex="1" parent="1">
          <mxGeometry x="110" y="280" width="180" height="60" as="geometry" />
        </mxCell>
        <mxCell id="TFNWqY0PJbVMRvpgXl2z-10" value="" style="endArrow=classic;html=1;exitX=0.25;exitY=1;exitDx=0;exitDy=0;entryX=0.5;entryY=0;entryDx=0;entryDy=0;entryPerimeter=0;" edge="1" parent="1" source="TFNWqY0PJbVMRvpgXl2z-9" target="TFNWqY0PJbVMRvpgXl2z-7">
          <mxGeometry width="50" height="50" relative="1" as="geometry">
            <mxPoint x="-110" y="370" as="sourcePoint" />
            <mxPoint x="-60" y="320" as="targetPoint" />
          </mxGeometry>
        </mxCell>
        <mxCell id="TFNWqY0PJbVMRvpgXl2z-11" value="" style="endArrow=classic;html=1;exitX=0.5;exitY=1;exitDx=0;exitDy=0;entryX=0.5;entryY=0;entryDx=0;entryDy=0;entryPerimeter=0;" edge="1" parent="1" source="TFNWqY0PJbVMRvpgXl2z-9" target="TFNWqY0PJbVMRvpgXl2z-6">
          <mxGeometry width="50" height="50" relative="1" as="geometry">
            <mxPoint x="165" y="350" as="sourcePoint" />
            <mxPoint y="460" as="targetPoint" />
          </mxGeometry>
        </mxCell>
        <mxCell id="TFNWqY0PJbVMRvpgXl2z-12" value="" style="endArrow=classic;html=1;exitX=0.75;exitY=1;exitDx=0;exitDy=0;entryX=0.5;entryY=0;entryDx=0;entryDy=0;entryPerimeter=0;" edge="1" parent="1" source="TFNWqY0PJbVMRvpgXl2z-9" target="TFNWqY0PJbVMRvpgXl2z-1">
          <mxGeometry width="50" height="50" relative="1" as="geometry">
            <mxPoint x="210" y="350" as="sourcePoint" />
            <mxPoint x="80" y="460" as="targetPoint" />
          </mxGeometry>
        </mxCell>
        <mxCell id="TFNWqY0PJbVMRvpgXl2z-13" value="" style="endArrow=classic;html=1;exitX=0.75;exitY=1;exitDx=0;exitDy=0;entryX=0.5;entryY=0;entryDx=0;entryDy=0;entryPerimeter=0;" edge="1" parent="1" source="TFNWqY0PJbVMRvpgXl2z-9" target="TFNWqY0PJbVMRvpgXl2z-5">
          <mxGeometry width="50" height="50" relative="1" as="geometry">
            <mxPoint x="220" y="360" as="sourcePoint" />
            <mxPoint x="90" y="470" as="targetPoint" />
          </mxGeometry>
        </mxCell>
        <mxCell id="TFNWqY0PJbVMRvpgXl2z-14" value="智能人场 - 管理时" style="rounded=1;whiteSpace=wrap;html=1;" vertex="1" parent="1">
          <mxGeometry x="110" y="130" width="180" height="60" as="geometry" />
        </mxCell>
        <mxCell id="TFNWqY0PJbVMRvpgXl2z-15" value="统计存储(KV)" style="shape=cylinder3;whiteSpace=wrap;html=1;boundedLbl=1;backgroundOutline=1;size=15;fillColor=#f9f7ed;strokeColor=#36393d;" vertex="1" parent="1">
          <mxGeometry x="530" y="450" width="60" height="80" as="geometry" />
        </mxCell>
        <mxCell id="TFNWqY0PJbVMRvpgXl2z-16" value="宽表存储(KV)" style="shape=cylinder3;whiteSpace=wrap;html=1;boundedLbl=1;backgroundOutline=1;size=15;fillColor=#f9f7ed;strokeColor=#36393d;" vertex="1" parent="1">
          <mxGeometry x="620" y="450" width="60" height="80" as="geometry" />
        </mxCell>
        <mxCell id="TFNWqY0PJbVMRvpgXl2z-17" value="特征运行时 - jar" style="rounded=1;whiteSpace=wrap;html=1;" vertex="1" parent="1">
          <mxGeometry x="550" y="280" width="180" height="60" as="geometry" />
        </mxCell>
        <mxCell id="TFNWqY0PJbVMRvpgXl2z-20" value="。。。。" style="text;html=1;align=center;verticalAlign=middle;whiteSpace=wrap;rounded=0;" vertex="1" parent="1">
          <mxGeometry x="720" y="480" width="40" height="20" as="geometry" />
        </mxCell>
        <mxCell id="TFNWqY0PJbVMRvpgXl2z-21" value="" style="endArrow=classic;html=1;exitX=0.75;exitY=1;exitDx=0;exitDy=0;entryX=0.145;entryY=0;entryDx=0;entryDy=4.35;entryPerimeter=0;" edge="1" parent="1" source="TFNWqY0PJbVMRvpgXl2z-9" target="TFNWqY0PJbVMRvpgXl2z-15">
          <mxGeometry width="50" height="50" relative="1" as="geometry">
            <mxPoint x="255" y="350" as="sourcePoint" />
            <mxPoint x="240" y="460" as="targetPoint" />
          </mxGeometry>
        </mxCell>
        <mxCell id="TFNWqY0PJbVMRvpgXl2z-22" value="meta管理" style="edgeLabel;html=1;align=center;verticalAlign=middle;resizable=0;points=[];" vertex="1" connectable="0" parent="TFNWqY0PJbVMRvpgXl2z-21">
          <mxGeometry x="-0.2059" y="-2" relative="1" as="geometry">
            <mxPoint as="offset" />
          </mxGeometry>
        </mxCell>
        <mxCell id="TFNWqY0PJbVMRvpgXl2z-23" value="" style="endArrow=classic;html=1;exitX=1;exitY=1;exitDx=0;exitDy=0;entryX=0.145;entryY=0;entryDx=0;entryDy=4.35;entryPerimeter=0;" edge="1" parent="1" source="TFNWqY0PJbVMRvpgXl2z-9" target="TFNWqY0PJbVMRvpgXl2z-16">
          <mxGeometry width="50" height="50" relative="1" as="geometry">
            <mxPoint x="255" y="350" as="sourcePoint" />
            <mxPoint x="478.6999999999998" y="464.3499999999999" as="targetPoint" />
          </mxGeometry>
        </mxCell>
        <mxCell id="TFNWqY0PJbVMRvpgXl2z-24" value="meta管理" style="edgeLabel;html=1;align=center;verticalAlign=middle;resizable=0;points=[];" vertex="1" connectable="0" parent="TFNWqY0PJbVMRvpgXl2z-23">
          <mxGeometry x="-0.2059" y="-2" relative="1" as="geometry">
            <mxPoint as="offset" />
          </mxGeometry>
        </mxCell>
        <mxCell id="TFNWqY0PJbVMRvpgXl2z-25" value="query" style="endArrow=classic;html=1;exitX=0.25;exitY=1;exitDx=0;exitDy=0;entryX=0.5;entryY=0;entryDx=0;entryDy=0;entryPerimeter=0;" edge="1" parent="1" source="TFNWqY0PJbVMRvpgXl2z-17" target="TFNWqY0PJbVMRvpgXl2z-15">
          <mxGeometry width="50" height="50" relative="1" as="geometry">
            <mxPoint x="380" y="630" as="sourcePoint" />
            <mxPoint x="430" y="580" as="targetPoint" />
          </mxGeometry>
        </mxCell>
        <mxCell id="TFNWqY0PJbVMRvpgXl2z-26" value="query" style="endArrow=classic;html=1;exitX=0.5;exitY=1;exitDx=0;exitDy=0;entryX=0.5;entryY=0;entryDx=0;entryDy=0;entryPerimeter=0;" edge="1" parent="1" source="TFNWqY0PJbVMRvpgXl2z-17" target="TFNWqY0PJbVMRvpgXl2z-16">
          <mxGeometry width="50" height="50" relative="1" as="geometry">
            <mxPoint x="605" y="350" as="sourcePoint" />
            <mxPoint x="570" y="460" as="targetPoint" />
          </mxGeometry>
        </mxCell>
        <mxCell id="TFNWqY0PJbVMRvpgXl2z-29" value="判定服务" style="rounded=0;whiteSpace=wrap;html=1;" vertex="1" parent="1">
          <mxGeometry x="490" y="130" width="120" height="60" as="geometry" />
        </mxCell>
        <mxCell id="TFNWqY0PJbVMRvpgXl2z-30" value="特征服务" style="rounded=0;whiteSpace=wrap;html=1;" vertex="1" parent="1">
          <mxGeometry x="670" y="130" width="120" height="60" as="geometry" />
        </mxCell>
        <mxCell id="TFNWqY0PJbVMRvpgXl2z-31" value="" style="endArrow=classic;html=1;exitX=0.5;exitY=0;exitDx=0;exitDy=0;entryX=0.5;entryY=1;entryDx=0;entryDy=0;" edge="1" parent="1" source="TFNWqY0PJbVMRvpgXl2z-17" target="TFNWqY0PJbVMRvpgXl2z-29">
          <mxGeometry width="50" height="50" relative="1" as="geometry">
            <mxPoint x="400" y="290" as="sourcePoint" />
            <mxPoint x="450" y="240" as="targetPoint" />
          </mxGeometry>
        </mxCell>
        <mxCell id="TFNWqY0PJbVMRvpgXl2z-32" value="集成" style="edgeLabel;html=1;align=center;verticalAlign=middle;resizable=0;points=[];" vertex="1" connectable="0" parent="TFNWqY0PJbVMRvpgXl2z-31">
          <mxGeometry x="0.0556" y="-1" relative="1" as="geometry">
            <mxPoint as="offset" />
          </mxGeometry>
        </mxCell>
        <mxCell id="TFNWqY0PJbVMRvpgXl2z-33" value="" style="endArrow=classic;html=1;entryX=0.5;entryY=1;entryDx=0;entryDy=0;" edge="1" parent="1" target="TFNWqY0PJbVMRvpgXl2z-30">
          <mxGeometry width="50" height="50" relative="1" as="geometry">
            <mxPoint x="640" y="280" as="sourcePoint" />
            <mxPoint x="560" y="200" as="targetPoint" />
          </mxGeometry>
        </mxCell>
        <mxCell id="TFNWqY0PJbVMRvpgXl2z-34" value="集成" style="edgeLabel;html=1;align=center;verticalAlign=middle;resizable=0;points=[];" vertex="1" connectable="0" parent="TFNWqY0PJbVMRvpgXl2z-33">
          <mxGeometry x="0.0556" y="-1" relative="1" as="geometry">
            <mxPoint as="offset" />
          </mxGeometry>
        </mxCell>
        <mxCell id="TFNWqY0PJbVMRvpgXl2z-36" value="" style="endArrow=none;html=1;dashed=1;fontStyle=1" edge="1" parent="1">
          <mxGeometry width="50" height="50" relative="1" as="geometry">
            <mxPoint x="400" y="640" as="sourcePoint" />
            <mxPoint x="400" y="-80" as="targetPoint" />
          </mxGeometry>
        </mxCell>
        <mxCell id="TFNWqY0PJbVMRvpgXl2z-38" value="&lt;b&gt;&lt;font style=&quot;font-size: 18px&quot;&gt;管理时&lt;/font&gt;&lt;/b&gt;" style="text;html=1;strokeColor=none;fillColor=none;align=center;verticalAlign=middle;whiteSpace=wrap;rounded=0;" vertex="1" parent="1">
          <mxGeometry x="120" y="-10" width="180" height="80" as="geometry" />
        </mxCell>
        <mxCell id="TFNWqY0PJbVMRvpgXl2z-39" value="&lt;b&gt;&lt;font style=&quot;font-size: 18px&quot;&gt;运行时&lt;/font&gt;&lt;/b&gt;" style="text;html=1;strokeColor=none;fillColor=none;align=center;verticalAlign=middle;whiteSpace=wrap;rounded=0;" vertex="1" parent="1">
          <mxGeometry x="520" y="-10" width="180" height="80" as="geometry" />
        </mxCell>
      </root>
    </mxGraphModel>
  </diagram>
</mxfile>
